# xmcd
#
# Track frame offsets:
#	183
#	13320
#	25298
#	36203
#	48230
#	62203
#	72770
#	86348
#	99293
#	112050
#	123703
#	135235
#	145853
#	168935
#	180955
#	194618
#	207043
#	218885
#	231563
#	242560
#
# Disc length: 3401
#
# Revision: 3
# Processed by: cddbd v1.5.1PL0 Copyright (c) Steve Scherf et al.
# Submitted via: ExactAudioCopy v0.90b4
# Normalized: r2:DSETVAR1
#
DISCID=1b0d4714
DTITLE=Various Artist - Rhythm and Blues Formidable
DYEAR=1993
DGENRE=Blues
TTITLE0=Booker-T. and The MG's - Green Onions
TTITLE1=Sam and Dave - Soul Man
TTITLE2=Aretha Franklin - Respect
TTITLE3=Otis Redding - (Sittin' On) The Dock Of The Bay
TTITLE4=Eddie Floyd - Knock On The Wood
TTITLE5=Arthur Conley - Sweet Soul Music
TTITLE6=Ben E. King - Stand By Me
TTITLE7=Percy Sledge - When A Man Loves A Woman
TTITLE8=Sam and Dave - You Got Me Hummin'
TTITLE9=Wilson Pickett - In The Midnight Hour
TTITLE10=Rufus Thomas - Walking The Dog
TTITLE11=Bar-Kays - Soul Finger
TTITLE12=Ray Charles - What'd I Say
TTITLE13=Mar-Keys - Last Night
TTITLE14=The Drifters - On Broadway
TTITLE15=Solomon Burke - Everybody Needs Somebody To Love
TTITLE16=Sam and Dave - Hold On I'm Comin'
TTITLE17=Aretha Franklin - Chains Of Fools
TTITLE18=Wilson Pickett - Land Of 1000 Dances
TTITLE19=Otis - I Can't Turn You Loose
EXTD=YEAR: 1993 ID3G:   0
EXTT0=
EXTT1=
EXTT2=
EXTT3=
EXTT4=
EXTT5=
EXTT6=
EXTT7=
EXTT8=
EXTT9=
EXTT10=
EXTT11=
EXTT12=
EXTT13=
EXTT14=
EXTT15=
EXTT16=
EXTT17=
EXTT18=
EXTT19=
PLAYORDER=
